<mxfile host="app.diagrams.net" agent="Mozilla/5.0 (Windows NT 10.0; Win64; x64) AppleWebKit/537.36 (KHTML, like Gecko) Chrome/126.0.0.0 Safari/537.36" version="24.7.7">
  <diagram name="Page-1" id="xYsEX8dRRKA42pnCce7e">
    <mxGraphModel dx="954" dy="558" grid="1" gridSize="10" guides="1" tooltips="1" connect="1" arrows="1" fold="1" page="1" pageScale="1" pageWidth="827" pageHeight="1169" math="0" shadow="0">
      <root>
        <mxCell id="0" />
        <mxCell id="1" parent="0" />
        <mxCell id="IvEWuJT5kZCaxAGLGMHn-29" value="源端口号(16位)" style="rounded=0;whiteSpace=wrap;html=1;fontSize=14;fillColor=#f5f5f5;strokeColor=#666666;fontColor=#333333;" parent="1" vertex="1">
          <mxGeometry x="40" y="119" width="360" height="50" as="geometry" />
        </mxCell>
        <mxCell id="IvEWuJT5kZCaxAGLGMHn-30" value="目标端口号(16位)" style="rounded=0;whiteSpace=wrap;html=1;fontSize=14;fillColor=#f5f5f5;strokeColor=#666666;fontColor=#333333;" parent="1" vertex="1">
          <mxGeometry x="400" y="119" width="360" height="50" as="geometry" />
        </mxCell>
        <mxCell id="IvEWuJT5kZCaxAGLGMHn-50" value="数据" style="rounded=0;whiteSpace=wrap;html=1;fontSize=14;fillColor=#f5f5f5;fontColor=#333333;strokeColor=#666666;" parent="1" vertex="1">
          <mxGeometry x="40" y="219" width="720" height="50" as="geometry" />
        </mxCell>
        <mxCell id="IvEWuJT5kZCaxAGLGMHn-51" value="包长度(16位)" style="rounded=0;whiteSpace=wrap;html=1;fontSize=14;fillColor=#f5f5f5;fontColor=#333333;strokeColor=#666666;" parent="1" vertex="1">
          <mxGeometry x="40" y="169" width="360" height="50" as="geometry" />
        </mxCell>
        <mxCell id="IvEWuJT5kZCaxAGLGMHn-52" value="校验和(16位)" style="rounded=0;whiteSpace=wrap;html=1;fontSize=14;fillColor=#f5f5f5;fontColor=#333333;strokeColor=#666666;" parent="1" vertex="1">
          <mxGeometry x="400" y="169" width="360" height="50" as="geometry" />
        </mxCell>
        <mxCell id="BY9CQJ_JBvkrRc8On7Q_-1" value="&lt;h1&gt;UDP 头部格式&lt;/h1&gt;" style="text;html=1;align=center;verticalAlign=middle;resizable=0;points=[];autosize=1;strokeColor=none;fillColor=none;" parent="1" vertex="1">
          <mxGeometry x="305" y="60" width="180" height="70" as="geometry" />
        </mxCell>
      </root>
    </mxGraphModel>
  </diagram>
</mxfile>
